<svg id="Layer_1" viewBox="0 0 512 512" xmlns="http://www.w3.org/2000/svg" data-name="Layer 1"><path d="m267.622 117.679h54.18v50.002h-54.18z" fill="#9bc8ff"/><path d="m267.622 211.62h136.591v55.753h-136.591z" fill="#9bc8ff"/><path d="m108.761 321.783-27.934 109.31h138.887l4.384-30.175c.572-3.933 3.943-6.85 7.917-6.85h88.84c3.967 0 7.334 2.907 7.914 6.831l4.46 30.193h138.794l-28.397-109.31h-334.865zm278.615 18.586h39.932c4.418 0 8 3.582 8 8s-3.582 8-8 8h-39.932c-4.418 0-8-3.582-8-8s3.582-8 8-8zm-49.18-.012h24.185c4.418 0 8 3.582 8 8s-3.582 8-8 8h-24.185c-4.418 0-8-3.582-8-8s3.582-8 8-8zm-49.178-.012h24.185c4.418 0 8 3.582 8 8s-3.582 8-8 8h-24.185c-4.418 0-8-3.582-8-8s3.582-8 8-8zm-49.178-.012h24.185c4.418 0 8 3.582 8 8s-3.582 8-8 8h-24.185c-4.418 0-8-3.582-8-8s3.582-8 8-8zm-49.178-.011h24.185c4.418 0 8 3.582 8 8s-3.582 8-8 8h-24.185c-4.418 0-8-3.582-8-8s3.582-8 8-8zm-65.71-.012h40.718c4.418 0 8 3.582 8 8s-3.582 8-8 8h-40.718c-4.418 0-8-3.582-8-8s3.582-8 8-8zm15.876 44.092h-23.056c-4.418 0-8-3.582-8-8s3.582-8 8-8h23.056c4.418 0 8 3.582 8 8s-3.582 8-8 8zm49.177 31.355h-24.185c-4.418 0-8-3.582-8-8s3.582-8 8-8h24.185c4.418 0 8 3.582 8 8s-3.582 8-8 8zm0-31.344h-24.185c-4.418 0-8-3.582-8-8s3.582-8 8-8h24.185c4.418 0 8 3.582 8 8s-3.582 8-8 8zm49.177.011h-24.185c-4.418 0-8-3.582-8-8s3.582-8 8-8h24.185c4.418 0 8 3.582 8 8s-3.582 8-8 8zm49.178.012h-24.185c-4.418 0-8-3.582-8-8s3.582-8 8-8h24.185c4.418 0 8 3.582 8 8s-3.582 8-8 8zm49.178.012h-24.185c-4.418 0-8-3.582-8-8s3.582-8 8-8h24.185c4.418 0 8 3.582 8 8s-3.582 8-8 8zm49.178 31.355h-24.185c-4.418 0-8-3.582-8-8s3.582-8 8-8h24.185c4.418 0 8 3.582 8 8s-3.582 8-8 8zm0-31.344h-24.185c-4.418 0-8-3.582-8-8s3.582-8 8-8h24.185c4.418 0 8 3.582 8 8s-3.582 8-8 8zm47.776.022h-22.281c-4.418 0-8-3.582-8-8s3.582-8 8-8h22.281c4.418 0 8 3.582 8 8s-3.582 8-8 8z" fill="#9bc8ff"/><path d="m101.355 228.532c1.823-1.823 4.417-2.654 6.958-2.236 2.544.42 4.73 2.04 5.872 4.353l14.575 29.528 30.294-107.121-51.315 14.512c-1.398 1.194-3.208 1.919-5.19 1.919-.419 0-.827-.042-1.228-.104l-49.387 13.967 29.528 14.575c2.312 1.142 3.933 3.328 4.353 5.872.419 2.545-.413 5.135-2.237 6.959l-56.173 56.173 17.776 17.776 56.174-56.174z" fill="#9bc8ff"/><g fill="#59a4ff"><path d="m288.362 368.437h-24.185c-4.418 0-8 3.582-8 8s3.582 8 8 8h24.185c4.418 0 8-3.582 8-8s-3.582-8-8-8z"/><path d="m338.197 356.357h24.185c4.418 0 8-3.582 8-8s-3.582-8-8-8h-24.185c-4.418 0-8 3.582-8 8s3.582 8 8 8z"/><path d="m239.184 368.425h-24.185c-4.418 0-8 3.582-8 8s3.582 8 8 8h24.185c4.418 0 8-3.582 8-8s-3.582-8-8-8z"/><path d="m386.718 399.804h-24.185c-4.418 0-8 3.582-8 8s3.582 8 8 8h24.185c4.418 0 8-3.582 8-8s-3.582-8-8-8z"/><path d="m337.54 368.449h-24.185c-4.418 0-8 3.582-8 8s3.582 8 8 8h24.185c4.418 0 8-3.582 8-8s-3.582-8-8-8z"/><path d="m39.524 301.676c1.562 1.562 3.609 2.343 5.657 2.343s4.095-.781 5.657-2.343l43.712-43.712v54.81l-31.623 123.746c-.166.647-.249 1.312-.249 1.98v27.865c0 8.777 8.136 15.919 18.137 15.919h391.417c10 0 18.136-7.142 18.136-15.919v-27.273c0-.318-.024-.63-.06-.938-.01-.082-.025-.162-.037-.243-.035-.237-.08-.47-.135-.7-.01-.043-.014-.088-.025-.131l-31.719-122.092c.06-.394.101-.795.101-1.206v-137.011c26.685-12.15 45.292-39.051 45.292-70.233 0-42.537-34.606-77.144-77.143-77.144-31.222 0-58.151 18.655-70.279 45.395h-241.306c-11.308 0-20.508 9.199-20.508 20.507v59.375l-66.991 18.945c-3.186.901-5.487 3.671-5.789 6.968-.303 3.297 1.457 6.438 4.425 7.904l38.178 18.846-53.939 53.938c-3.124 3.125-3.124 8.189 0 11.314l29.09 29.09zm434.844 164.053c-.368.246-1.112.556-2.136.556h-391.418c-1.024 0-1.769-.31-2.137-.556v-18.637h247.616.021.013 148.04v18.637zm-238.486-34.637 3.054-21.024h75.014l3.105 21.024h-81.174zm236.142 0h-138.794l-4.46-30.193c-.58-3.924-3.947-6.831-7.914-6.831h-88.84c-3.974 0-7.345 2.917-7.917 6.85l-4.384 30.175h-138.887l27.934-109.31h334.865l28.397 109.31zm-45.382-385.698c33.714 0 61.143 27.429 61.143 61.144s-27.429 61.144-61.143 61.144-61.144-27.429-61.144-61.144 27.429-61.144 61.144-61.144zm-316.093 49.901c0-2.443 2.064-4.507 4.508-4.507h236.063c-1.059 5.086-1.621 10.353-1.621 15.749 0 42.537 34.606 77.144 77.144 77.144 5.432 0 10.732-.572 15.851-1.645v123.746h-331.945v-46.352l13.073 26.484c1.465 2.968 4.605 4.726 7.904 4.426 3.297-.303 6.067-2.604 6.968-5.79l39.851-140.911c.789-2.788.007-5.784-2.042-7.834-2.049-2.048-5.045-2.829-7.834-2.041l-57.92 16.38v-54.85zm-26.972 115.461c1.824-1.824 2.656-4.414 2.237-6.959-.42-2.544-2.04-4.73-4.353-5.872l-29.528-14.575 49.387-13.967c.402.062.81.104 1.228.104 1.982 0 3.793-.725 5.19-1.919l51.315-14.512-30.294 107.121-14.575-29.528c-1.142-2.312-3.328-3.933-5.872-4.353-2.542-.418-5.135.413-6.958 2.236l-56.174 56.174-17.776-17.776 56.173-56.173z"/><path d="m235.157 214.644h-57.243c-4.418 0-8 3.582-8 8s3.582 8 8 8h57.243c4.418 0 8-3.582 8-8s-3.582-8-8-8z"/><path d="m124.954 356.311h40.718c4.418 0 8-3.582 8-8s-3.582-8-8-8h-40.718c-4.418 0-8 3.582-8 8s3.582 8 8 8z"/><path d="m140.83 368.403h-23.056c-4.418 0-8 3.582-8 8s3.582 8 8 8h23.056c4.418 0 8-3.582 8-8s-3.582-8-8-8z"/><path d="m289.019 356.345h24.185c4.418 0 8-3.582 8-8s-3.582-8-8-8h-24.185c-4.418 0-8 3.582-8 8s3.582 8 8 8z"/><path d="m190.007 399.758h-24.185c-4.418 0-8 3.582-8 8s3.582 8 8 8h24.185c4.418 0 8-3.582 8-8s-3.582-8-8-8z"/><path d="m239.841 356.333h24.185c4.418 0 8-3.582 8-8s-3.582-8-8-8h-24.185c-4.418 0-8 3.582-8 8s3.582 8 8 8z"/><path d="m190.664 356.323h24.185c4.418 0 8-3.582 8-8s-3.582-8-8-8h-24.185c-4.418 0-8 3.582-8 8s3.582 8 8 8z"/><path d="m387.377 356.369h39.932c4.418 0 8-3.582 8-8s-3.582-8-8-8h-39.932c-4.418 0-8 3.582-8 8s3.582 8 8 8z"/><path d="m195.111 168.08h40.045c4.418 0 8-3.582 8-8s-3.582-8-8-8h-40.045c-4.418 0-8 3.582-8 8s3.582 8 8 8z"/><path d="m195.762 133.281h39.395c4.418 0 8-3.582 8-8s-3.582-8-8-8h-39.395c-4.418 0-8 3.582-8 8s3.582 8 8 8z"/><path d="m410.128 137.336c1.562 1.562 3.609 2.343 5.657 2.343s4.095-.781 5.657-2.343l44-44c3.124-3.125 3.124-8.189 0-11.314-3.124-3.123-8.189-3.123-11.313 0l-38.343 38.344-15.295-15.296c-3.124-3.123-8.189-3.123-11.313 0-3.124 3.125-3.124 8.189 0 11.314l20.952 20.952z"/><path d="m265.374 283.373h141.088c7.583 0 13.751-6.169 13.751-13.752v-60.25c0-7.582-6.169-13.751-13.751-13.751h-141.088c-7.583 0-13.752 6.169-13.752 13.751v60.25c0 7.583 6.169 13.752 13.752 13.752zm2.248-71.753h136.591v55.753h-136.591z"/><path d="m434.494 368.483h-22.281c-4.418 0-8 3.582-8 8s3.582 8 8 8h22.281c4.418 0 8-3.582 8-8s-3.582-8-8-8z"/><path d="m264.913 183.681h59.598c7.329 0 13.291-5.962 13.291-13.291v-55.42c0-7.329-5.962-13.291-13.291-13.291h-59.598c-7.329 0-13.291 5.962-13.291 13.291v55.42c0 7.329 5.962 13.291 13.291 13.291zm2.709-66.002h54.18v50.002h-54.18z"/><path d="m190.007 368.415h-24.185c-4.418 0-8 3.582-8 8s3.582 8 8 8h24.185c4.418 0 8-3.582 8-8s-3.582-8-8-8z"/><path d="m386.718 368.46h-24.185c-4.418 0-8 3.582-8 8s3.582 8 8 8h24.185c4.418 0 8-3.582 8-8s-3.582-8-8-8z"/><path d="m235.157 249.443h-64.801c-4.418 0-8 3.582-8 8s3.582 8 8 8h64.801c4.418 0 8-3.582 8-8s-3.582-8-8-8z"/></g></svg>