<svg id="Layer_1" viewBox="0 0 512 512" xmlns="http://www.w3.org/2000/svg" data-name="Layer 1"><g fill="#9bc8ff"><path d="m186.774 212.165h22.851l3.393-26.854-29.643-.05z"/><path d="m114.698 107.318h167.001v18.938h-167.001z"/><path d="m231.163 169.341 33.073.055 7.065-27.141h-36.716z"/><path d="m225.753 212.165h22.625c3.909 0 5.514-3.022 6.173-5.558l5.522-21.218-30.932-.052-3.389 26.827z"/><path d="m181.353 169.257 33.686.057 3.419-27.059h-40.517z"/><path d="m298.096 458.545c0 11.164-4.655 21.39-12.346 29.293h159.545c17.363 0 31.489-15.958 31.489-35.576v-35.575h-178.688v41.857z"/><path d="m194.428 431.694s0-.006 0-.01v-26.092c0-16.151-16.075-29.292-35.834-29.292s-35.834 13.141-35.834 29.292v52.954c0 11.163-4.655 21.388-12.346 29.292h96.359c-7.691-7.904-12.346-18.129-12.346-29.293v-26.852z"/><path d="m136.272 185.182 5.576 21.422c.66 2.538 2.265 5.561 6.174 5.561h22.625l-3.403-26.931z"/><path d="m161.814 142.255h-36.715l7.007 26.92 33.116.055z"/></g><path d="m165.229 260.841c0 4.418 3.582 8 8 8h132.755c4.418 0 8-3.582 8-8s-3.582-8-8-8h-132.755c-4.418 0-8 3.582-8 8z" fill="#59a4ff"/><path d="m111.743 320.209h-21.33c-4.418 0-8 3.582-8 8s3.582 8 8 8h21.33c4.418 0 8-3.582 8-8s-3.582-8-8-8z" fill="#59a4ff"/><path d="m305.983 320.209h-130.685c-4.418 0-8 3.582-8 8s3.582 8 8 8h130.686c4.418 0 8-3.582 8-8s-3.582-8-8-8z" fill="#59a4ff"/><path d="m305.983 286.526h-21.33c-4.418 0-8 3.582-8 8s3.582 8 8 8h21.33c4.418 0 8-3.582 8-8s-3.582-8-8-8z" fill="#59a4ff"/><path d="m90.413 268.841h21.33c4.418 0 8-3.582 8-8s-3.582-8-8-8h-21.33c-4.418 0-8 3.582-8 8s3.582 8 8 8z" fill="#59a4ff"/><path d="m484.783 400.688h-57.734v-18.858c0-11.871-10.965-21.529-24.442-21.529h-25.305v-338.594c0-7.646-6.787-13.867-15.13-13.867h-327.948c-8.343 0-15.13 6.221-15.13 13.867v436.944c0 .048.006.094.007.141.153 24.86 23.339 45.046 51.826 45.046h374.367c26.186 0 47.489-23.136 47.489-51.575v-43.575c0-4.418-3.582-8-8-8zm-378.022 31.381v26.478c0 16.151-16.075 29.292-35.833 29.292s-35.834-13.141-35.834-29.292v-434.708h326.208v336.461h-202.707c-28.582 0-51.834 20.318-51.834 45.292zm3.654 55.77c7.691-7.904 12.346-18.129 12.346-29.292v-52.954c0-16.151 16.075-29.292 35.834-29.292s35.834 13.141 35.834 29.292v26.092s0 .006 0 .01v26.852c0 11.164 4.655 21.389 12.346 29.293h-96.36zm171.681-78.775v49.481c0 16.152-16.075 29.293-35.833 29.293s-35.834-13.141-35.834-29.293v-26.842s0-.006 0-.01v-26.102c0-11.163-4.655-21.388-12.346-29.292h204.524c4.832 0 8.442 2.919 8.442 5.529v18.858h-120.496c-2.036 0-3.889.767-5.301 2.02-1.915 1.461-3.156 3.761-3.156 6.356zm194.688 43.199c0 19.617-14.126 35.576-31.489 35.576h-159.545c7.691-7.904 12.346-18.13 12.346-29.294v-41.857h178.688z" fill="#59a4ff"/><path d="m90.413 302.526h137.387c4.418 0 8-3.582 8-8s-3.582-8-8-8h-137.387c-4.418 0-8 3.582-8 8s3.582 8 8 8z" fill="#59a4ff"/><path d="m108.272 141.128 18.09 69.502c2.768 10.651 11.269 17.534 21.659 17.534h100.356c10.39 0 18.891-6.883 21.658-17.531l18.091-69.506c5.605-2.279 9.571-7.775 9.571-14.189v-20.303c0-8.446-6.872-15.317-15.318-15.317h-10.824v-31.697c0-8.006-7.113-14.519-15.857-14.519h-115.002c-8.743 0-15.856 6.513-15.856 14.519v31.697h-10.824c-8.447 0-15.318 6.871-15.318 15.317v20.303c0 6.415 3.968 11.912 9.575 14.19zm23.833 28.047-7.007-26.919h36.715l3.408 26.975-33.117-.056zm15.916 42.99c-3.909 0-5.514-3.022-6.174-5.561l-5.576-21.422 30.972.052 3.403 26.931zm61.604 0h-22.851l-3.399-26.904 29.643.05zm5.414-42.851-33.686-.057-3.412-27.002h40.517zm39.512 37.293c-.659 2.535-2.265 5.558-6.173 5.558h-22.625l3.389-26.827 30.932.052-5.522 21.218zm9.685-37.21-33.073-.056 3.422-27.085h36.715zm-123.396-108.295h114.716v30.216h-114.716zm-26.143 46.216h167.001v18.938h-167v-18.938z" fill="#59a4ff"/></svg>