<svg id="Layer_1" enable-background="new 0 0 512 512" height="512" viewBox="0 0 512 512" width="512" xmlns="http://www.w3.org/2000/svg"><g clip-rule="evenodd" fill-rule="evenodd"><path d="m473.478 97.009c.667-1.723-.203-3.643-1.921-4.306-1.716-.663-3.642.2-4.304 1.913-.664 1.717.195 3.648 1.911 4.311 1.723.665 3.649-.198 4.314-1.918zm-384.017 162.582c-.922 0-1.79.419-2.361 1.144-.57.724-.776 1.667-.56 2.562l24.401 101.047c.325 1.344 1.527 2.297 2.911 2.297h154.941c9.82 0 17.964-5.966 20.86-15.358l27.079-87.807c.281-.911.112-1.902-.454-2.669-.564-.764-1.457-1.217-2.407-1.217h-224.41zm176.998 213.742c9.432 0 17.104-7.683 17.104-17.113 0-9.432-7.673-17.099-17.104-17.099-9.427 0-17.108 7.669-17.108 17.099-.001 9.428 7.678 17.113 17.108 17.113zm-128.168-34.212c-9.43 0-17.109 7.667-17.109 17.099 0 9.431 7.677 17.113 17.109 17.113 9.427 0 17.104-7.688 17.104-17.113-.001-9.427-7.679-17.099-17.104-17.099zm318.641-241.449c-2.465 0-4.812-.982-6.547-2.725-1.725-1.733-2.703-4.042-2.703-6.496v-108.433c0-5.058 4.169-9.262 9.229-9.269l26.841-.038c2.459 0 4.824.984 6.552 2.73 1.716 1.735 2.698 4.052 2.698 6.501v108.428c0 5.054-4.18 9.251-9.233 9.259l-26.82.042c-.049 0-.098 0-.147-.002zm-209.015-117.762c-6.764-1.772-13.851-.787-19.909 2.711-1.654.955-3.204 2.089-4.613 3.378l-1.433 1.311h-117.911v-20.16c0-9.439 7.672-17.111 17.111-17.111h211.729c9.439 0 17.111 7.672 17.111 17.111v20.16h-81.362l-.938-.399c-6.396-2.72-12.915-5.062-19.606-6.948-.06-.017-.119-.035-.179-.053zm-92.154 48.658v13.313h-25.019v-7.584c0-3.145 2.598-5.729 5.729-5.729zm0 19.313v15.502h-25.019v-15.502zm6-19.313h15.507v34.814h-15.507zm21.51 19.313h25.019v15.502h-25.019zm0-5.999v-13.313h19.29c3.136 0 5.729 2.592 5.729 5.729v7.584zm25.019 27.5v7.589c0 3.14-2.592 5.72-5.729 5.72h-66.089c-3.137 0-5.729-2.575-5.729-5.72v-7.589zm126.955 85.377c-.041.111-.081.22-.107.301l-31.04 100.654c-4.803 15.574-19.002 26.096-35.307 26.096h-163.244c-11.788 0-21.377 9.606-21.377 21.392 0 11.621 9.352 21.144 20.966 21.369l10.133.197-6.322 7.921c-1.109 1.389-2.135 2.845-3.046 4.371l-1.674 2.805-3.241-.406c-18.226-2.286-31.988-17.868-31.988-36.257 0-15.59 9.934-29.46 24.658-34.557 1.45-.502 2.284-2.051 1.925-3.54l-40.329-167.099c-.519-2.151-2.286-3.506-4.492-3.506h-24.18c-4.185 0-7.579-3.393-7.579-7.579 0-4.185 3.393-7.588 7.579-7.588h24.179c9.136 0 17.018 6.239 19.16 15.114l11.508 47.681c.327 1.353 1.535 2.292 2.925 2.292h243.826c2.561 0 4.845 1.225 6.27 3.341 1.405 2.085 1.717 4.645.797 6.998zm-68.788 169.82c17.452 0 31.641 14.189 31.641 31.641 0 17.451-14.187 31.65-31.641 31.65-17.449 0-31.636-14.205-31.636-31.65 0-17.447 14.188-31.641 31.636-31.641zm-95.673 12.695 1.448 2.477h60.277l1.448-2.477c.934-1.598 1.986-3.125 3.144-4.569l6.51-8.126h-82.508l6.539 8.133c1.158 1.441 2.21 2.966 3.142 4.562zm-.855 18.946c0 17.448-14.19 31.65-31.641 31.65-17.455 0-31.65-14.196-31.65-31.65 0-17.455 14.197-31.641 31.65-31.641 17.45 0 31.641 14.191 31.641 31.641z" fill="#9bc9ff"/><path d="m478.141 98.813c-1.662 4.297-6.481 6.439-10.779 4.777-4.293-1.657-6.434-6.481-4.773-10.779 1.661-4.293 6.481-6.43 10.769-4.773 4.303 1.662 6.444 6.482 4.783 10.775zm9.861 89.557v-108.427c0-1.501-.791-2.513-1.252-2.984-.471-.471-1.487-1.247-2.998-1.247h-.009l-26.825.038c-2.297 0-4.236 1.963-4.236 4.269v108.431c0 1.501.782 2.499 1.247 2.97.471.471 1.483 1.252 3.003 1.252h.009l26.82-.042c2.292 0 4.241-1.958 4.241-4.26zm-112.429.763c-26.594 4.476-39.924-6.844-60.102-23.982-17.82-15.142-39.999-33.979-78.148-44.73-.033-.009-.061-.023-.103-.033-8.077-2.16-13.081-10.816-10.911-18.898 1.064-3.959 3.62-7.282 7.201-9.353 3.582-2.057 7.719-2.617 11.659-1.577 15.702 4.439 28.363 10.981 40.602 17.312 18.569 9.588 37.759 19.519 66.621 21.727 2.208.16 4.41-.598 6.049-2.109 1.628-1.511 2.56-3.639 2.56-5.869v-54.472c0-15.5-12.61-28.11-28.109-28.11h-60.069c34.37-16.088 73.54-12.699 105.679 10.04 9.569 6.773 15.759 13.612 21.209 19.642 9.522 10.51 17.9 19.75 36.968 21.741v88.376zm-42.681 19.745c4.528 0 8.5-2.509 10.567-6.208-14.379-4.971-25.845-14.709-38.337-25.318-17.5-14.869-37.34-31.71-72.1-41.519-16.38-4.42-26.25-21.111-22.4-37.523h-101.57v98.463c0 6.679 5.432 12.106 12.111 12.106h211.729zm12.11-110.569h-42.771c12.751 6.364 25.841 11.913 42.771 14.38zm-223.84-43.27c-6.679 0-12.111 5.432-12.111 12.111v15.16h110.969c1.661-1.52 3.502-2.871 5.488-4.02 7.291-4.208 15.764-5.338 23.845-3.173.038.014.066.023.099.033 7.347 2.071 13.998 4.519 20.206 7.159h75.343v-15.16c0-6.679-5.432-12.111-12.111-12.111h-211.728zm376.889 10.599c-3.831-3.827-8.91-5.926-14.299-5.926-.009 0-.019 0-.028 0l-26.82.038c-9.221.009-17.001 6.241-19.435 14.709-12.327-1.497-17.505-7.216-25.888-16.479-5.719-6.312-12.831-14.172-23.84-21.958-20.758-14.69-44.73-22.602-69.319-22.885-24.612-.259-48.73 7.093-69.821 21.303l-6.82 4.599h-120.619c-15.5 0-28.109 12.61-28.109 28.11v129.623c0 15.5 12.61 28.109 28.109 28.109h211.729c12.29 0 22.758-7.931 26.57-18.94 5.719.409 11.927.122 18.771-1.031l59.518-10.021c.988 2.923 2.617 5.601 4.881 7.851 3.827 3.832 8.91 5.931 14.3 5.931h.028l26.82-.042c11.151-.009 20.221-9.108 20.221-20.258v-108.428c.001-5.404-2.108-10.473-5.949-14.305zm-295.488 112.052h-66.089c-.381 0-.73-.339-.73-.72v-2.589h67.548v2.589c0 .382-.353.72-.729.72zm-66.089-44.122h14.29v3.314h-15.02v-2.584c0-.377.348-.73.73-.73zm51.799 19.312h15.02v5.502h-15.02zm-21.511-19.312h5.507v24.814h-5.507zm-15.998 24.815h-15.02v-5.502h15.02zm52.528-24.085v2.584h-15.02v-3.314h14.29c.377 0 .73.353.73.73zm-.729-16.729c9.221 0 16.728 7.503 16.728 16.728v42.673c0 9.221-7.508 16.719-16.728 16.719h-66.089c-9.23 0-16.733-7.498-16.733-16.719v-42.673c0-9.225 7.503-16.728 16.733-16.728zm63.896 332.551c3.361 0 6.105 2.739 6.105 6.1 0 3.37-2.744 6.109-6.105 6.109-3.365 0-6.109-2.739-6.109-6.109-.001-3.361 2.743-6.1 6.109-6.1zm0 28.213c12.191 0 22.103-9.922 22.103-22.113s-9.913-22.099-22.103-22.099c-12.186 0-22.108 9.908-22.108 22.099 0 12.19 9.921 22.113 22.108 22.113zm-128.168-16.004c-3.37 0-6.109-2.739-6.109-6.109 0-3.361 2.739-6.1 6.109-6.1 3.36 0 6.1 2.739 6.1 6.1 0 3.37-2.74 6.109-6.1 6.109zm0-28.208c-12.191 0-22.108 9.908-22.108 22.099s9.917 22.113 22.108 22.113c12.181 0 22.104-9.922 22.104-22.113-.001-12.191-9.923-22.099-22.104-22.099zm192.29-181.158c.442-1.102.009-1.982-.278-2.41-.353-.522-1.003-1.134-2.123-1.134h-243.826c-3.704 0-6.914-2.527-7.785-6.119l-11.508-47.681c-1.6-6.637-7.479-11.287-14.3-11.287h-24.179c-1.421 0-2.579 1.158-2.579 2.589s1.158 2.579 2.579 2.579h24.179c4.528 0 8.289 2.951 9.353 7.333l40.328 167.099c.97 3.996-1.261 8.091-5.149 9.437-12.741 4.41-21.294 16.404-21.294 29.832 0 16.06 12.073 29.347 27.611 31.296 1.031-1.727 2.184-3.366 3.431-4.928-14.309-.277-25.869-11.998-25.869-26.368 0-14.554 11.838-26.391 26.377-26.391h163.244c14.088 0 26.358-9.07 30.529-22.569l31.051-100.69c.066-.203.137-.4.208-.588zm-37.482 203.257c0-14.69-11.946-26.641-26.641-26.641-14.685 0-26.636 11.951-26.636 26.641s11.951 26.651 26.636 26.651c14.695-.001 26.641-11.961 26.641-26.651zm-117.996-21.468c-1.059-1.812-2.25-3.539-3.563-5.173h61.66c-1.309 1.633-2.499 3.361-3.558 5.173zm-36.812 48.118c14.69 0 26.641-11.96 26.641-26.651s-11.951-26.641-26.641-26.641c-14.7 0-26.651 11.951-26.651 26.641s11.951 26.651 26.651 26.651zm189.889-249.45h-237.537l-10.03-41.548c-3.342-13.862-15.622-23.539-29.851-23.539h-24.18c-10.242 0-18.583 8.336-18.583 18.587 0 10.252 8.341 18.578 18.583 18.578h19.157l37.58 155.68c-15.387 8.153-25.319 24.25-25.319 42.023 0 22.988 16.408 42.221 38.13 46.608-.32 2.09-.489 4.232-.489 6.411 0 23.52 19.129 42.649 42.649 42.649 23.511 0 42.64-19.129 42.64-42.649 0-1.85-.127-3.681-.367-5.47h43.618c-.23 1.789-.362 3.62-.362 5.47 0 23.52 19.133 42.649 42.639 42.649 23.511 0 42.644-19.129 42.644-42.649 0-23.511-19.134-42.64-42.644-42.64h-160.909c-5.62 0-10.378-4.749-10.378-10.379 0-5.629 4.758-10.393 10.378-10.393h163.244c21.158 0 39.566-13.598 45.817-33.847l30.971-100.431c2.118-5.639 1.36-11.95-2.038-16.973-3.464-5.097-9.202-8.137-15.363-8.137zm-59.387 122.218h-11.701v-18.008h25.262l-3.21 10.412c-1.474 4.758-5.343 7.596-10.351 7.596zm-152.992-18.008h28.171v18.008h-23.822zm28.171-67.04v17.359h-40.159l-4.189-17.359zm113.12 33.357h35.65l-5.46 17.684h-30.19zm-48.561 17.684v-17.684h32.562v17.684zm0 15.999h32.562v18.008h-32.562zm-15.998 0v18.008h-32.563v-18.008zm15.998-67.04h32.562v17.359h-32.562zm-15.998 17.359h-32.563v-17.359h32.562v17.359zm-32.563 15.998h32.562v17.684h-32.562zm-52.298 0h36.3v17.684h-32.03zm189.998-15.998h-40.578v-17.359h45.939zm16.201-33.358c2.542 0 4.928 1.21 6.43 3.248 1.511 2.043 1.958 4.683 1.21 7.112l-27.079 87.807c-3.539 11.471-13.607 18.884-25.638 18.884h-154.942c-3.69 0-6.91-2.533-7.771-6.124l-24.4-101.047c-.579-2.391-.028-4.9 1.492-6.83s3.836-3.05 6.288-3.05z" fill="#57a4ff"/></g></svg>