<svg enable-background="new 0 0 512 512" viewBox="0 0 512 512" xmlns="http://www.w3.org/2000/svg"><g id="_x32_5_Delivery_Truck"><g><path d="m327.248 151.992v209.953h-299.076v-209.953c0-5.606 4.545-10.151 10.151-10.151h278.774c5.607.001 10.151 4.545 10.151 10.151z" fill="#fefdfe"/><path d="m483.324 266.844v95.107h-156.077v-157.011h96.89l58.932 61.65z" fill="#dceeff"/><g fill="#fefdfe"><path d="m498.694 373.372c0 6.449-5.228 11.676-11.676 11.676h-462.031c-6.449 0-11.676-5.228-11.676-11.676 0-6.449 5.228-11.676 11.676-11.676h462.031c6.448 0 11.676 5.227 11.676 11.676z"/><path d="m443.158 192.033c0 7.133-5.774 12.907-12.907 12.907h-103.004v-25.815h103.004c7.133 0 12.907 5.775 12.907 12.908z"/><path d="m483.069 266.59h-116.505c-7.269 0-13.162-5.893-13.162-13.162v-48.488h70.736z"/><path d="m483.069 296.682v40.569h-23.044c-2.749 0-4.978-2.229-4.978-4.978v-30.613c0-2.749 2.229-4.978 4.978-4.978z"/></g><path d="m56.873 236.274v80.119c0 5.839-4.733 10.572-10.572 10.572h-18.13v-101.263h18.13c5.839 0 10.572 4.734 10.572 10.572z" fill="#b8daff"/><path d="m56.873 262.386v-26.112c0-5.839-4.733-10.572-10.572-10.572h-18.13v36.684z" fill="#fefdfe"/><path d="m153.381 373.396c0 23.288-18.912 42.2-42.249 42.2-23.288 0-42.2-18.913-42.2-42.2 0-23.337 18.913-42.249 42.2-42.249 23.337 0 42.249 18.913 42.249 42.249z" fill="#b8daff"/><path d="m127.184 373.381c0 8.84-7.179 16.019-16.037 16.019-8.84 0-16.019-7.179-16.019-16.019 0-8.858 7.179-16.037 16.019-16.037 8.858 0 16.037 7.179 16.037 16.037z" fill="#fefdfe"/><path d="m427.428 373.396c0 23.288-18.912 42.2-42.249 42.2-23.288 0-42.2-18.913-42.2-42.2 0-23.337 18.913-42.249 42.2-42.249 23.336 0 42.249 18.913 42.249 42.249z" fill="#b8daff"/><path d="m401.231 373.381c0 8.84-7.179 16.019-16.037 16.019-8.84 0-16.019-7.179-16.019-16.019 0-8.858 7.179-16.037 16.019-16.037 8.858 0 16.037 7.179 16.037 16.037z" fill="#fefdfe"/><ellipse cx="177.71" cy="161.049" fill="#b8daff" rx="64.653" ry="64.653" transform="matrix(.707 -.707 .707 .707 -61.829 172.831)"/><path d="m490.605 354.776v-87.931c0-1.872-.976-3.934-2.275-5.285l-49.213-51.482c6.676-3.297 11.321-10.111 11.321-18.046 0-11.13-9.058-20.188-20.188-20.188h-95.721v-19.851c0-9.613-7.816-17.434-17.429-17.434h-72.576c-10.579-26.577-36.512-45.438-66.815-45.438s-56.232 18.861-66.81 45.438h-72.577c-9.613 0-17.429 7.821-17.429 17.434v202.892c-8.489 1.881-14.865 9.441-14.865 18.488 0 10.452 8.504 18.956 18.96 18.956h40.445c7.448 17.914 25.117 30.55 45.697 30.55 20.601 0 38.291-12.635 45.749-30.55h182.601c7.448 17.914 25.117 30.55 45.697 30.55 20.601 0 38.291-12.635 45.749-30.55h56.092c10.452 0 18.956-8.504 18.956-18.956-.002-9.227-6.63-16.913-15.369-18.597zm-24.568-95.467h-99.475c-3.242 0-5.878-2.64-5.878-5.882v-41.205h60.336zm-35.787-72.903c3.105 0 5.626 2.522 5.626 5.626 0 3.105-2.522 5.626-5.626 5.626-77.294 0-78.163 0-95.721 0v-11.253h95.721zm-394.796 83.26h14.14v46.728c0 5.267-7.664 2.614-14.14 3.29zm14.14-14.562h-14.14v-22.122h10.846c1.815 0 3.294 1.479 3.294 3.294zm-24.606 122.664c-2.427 0-4.399-1.972-4.399-4.394 0-2.427 1.972-4.399 4.399-4.399.489.003 39.294.268 36.876.251-.266 3.172-.301 5.014.01 8.542zm86.141 30.549c-19.254 0-34.915-15.666-34.915-34.92 0-19.283 15.661-34.967 34.915-34.967 19.283 0 34.972 15.685 34.972 34.967.001 19.254-15.689 34.92-34.972 34.92zm0-84.449c-20.567 0-38.229 12.63-45.684 30.545h-29.991v-20.169h10.846c9.845 0 17.856-8.006 17.856-17.851 0-44.168 0-34.696 0-80.117 0-9.845-8.011-17.856-17.856-17.856h-10.846v-66.427c0-1.583 1.285-2.872 2.868-2.872h68.53c-.654 3.891-1.075 7.861-1.075 11.935 0 9.257 1.749 18.259 5.19 26.762 1.507 3.726 5.754 5.522 9.485 4.015 3.726-1.512 5.522-5.759 4.015-9.485-2.74-6.755-4.129-13.922-4.129-21.292 0-31.635 25.734-57.374 57.369-57.374s57.374 25.739 57.374 57.374-25.739 57.374-57.374 57.374c-11.608 0-22.809-3.456-32.394-9.997-3.313-2.261-7.845-1.417-10.12 1.91-2.266 3.323-1.408 7.854 1.91 10.12 12.016 8.196 26.051 12.528 40.603 12.528 39.665 0 71.935-32.27 71.935-71.935 0-4.074-.421-8.044-1.075-11.935h68.531c1.583 0 2.868 1.289 2.868 2.872v202.42h-163.099c-7.465-17.915-25.148-30.545-45.737-30.545zm49.312 53.9c.309-3.503.279-5.346.01-8.542 7.779 0 134.293.004 175.459.005-.265 3.172-.3 5.009.01 8.537zm224.735 30.549c-19.254 0-34.915-15.666-34.915-34.92 0-19.283 15.661-34.967 34.915-34.967 19.283 0 34.972 15.685 34.972 34.967 0 19.254-15.689 34.92-34.972 34.92zm0-84.449c-20.567 0-38.229 12.63-45.684 30.545h-4.963v-142.192h11.594v41.205c0 11.272 9.167 20.444 20.439 20.444h109.481v15.533h-16.017c-6.759 0-12.263 5.498-12.263 12.258v30.611c0 6.759 5.503 12.258 12.263 12.258h16.017v9.883h-45.13c-7.465-17.915-25.149-30.545-45.737-30.545zm90.611-19.903v26.004h-13.462v-26.004zm11.23 73.803h-52.528c.31-3.517.278-5.353.01-8.537 5.37-.026-19.453.095 52.518-.256 2.422 0 4.394 1.972 4.394 4.399 0 2.422-1.972 4.394-4.394 4.394z" fill="#3f8cf4"/><path d="m111.148 350.062c-12.85 0-23.302 10.461-23.302 23.321 0 12.846 10.452 23.297 23.302 23.297 12.855 0 23.316-10.452 23.316-23.297.001-12.86-10.461-23.321-23.316-23.321zm0 32.057c-4.821 0-8.741-3.92-8.741-8.736 0-4.83 3.92-8.76 8.741-8.76 4.825 0 8.755 3.93 8.755 8.76 0 4.816-3.929 8.736-8.755 8.736z" fill="#3f8cf4"/><path d="m385.195 350.062c-12.85 0-23.302 10.461-23.302 23.321 0 12.846 10.452 23.297 23.302 23.297 12.855 0 23.316-10.452 23.316-23.297.001-12.86-10.461-23.321-23.316-23.321zm0 32.057c-4.821 0-8.741-3.92-8.741-8.736 0-4.83 3.92-8.76 8.741-8.76 4.825 0 8.755 3.93 8.755 8.76 0 4.816-3.929 8.736-8.755 8.736z" fill="#3f8cf4"/><path d="m159.35 185.036c1.432 1.559 3.394 2.351 5.356 2.351 1.735 0 3.479-.616 4.868-1.868l42.39-38.115c2.991-2.688 3.233-7.29.545-10.281-2.683-2.986-7.29-3.237-10.281-.545l-37.039 33.299-11.509-12.509c-2.716-2.958-7.333-3.152-10.286-.427-2.958 2.721-3.152 7.328-.427 10.286z" fill="#3f8cf4"/></g></g><g id="Layer_1"/></svg>