<svg class="logo_square"
     viewBox="0 0 26 26"
     version="1.1"
     xmlns="http://www.w3.org/2000/svg"
     xmlns:xlink="http://www.w3.org/1999/xlink"
     height="33px"
>
	<defs>
		<path id="d" d="m0.1 55.82c16.91-27.81 27.48-45.2 31.71-52.15 1.55-2.55 4.32-4.11 7.31-4.12 2.41-0.01 8.45-0.03 18.1-0.06-16.26 26.9-26.43 43.71-30.5 50.44-2.21 3.66-6.18 5.89-10.46 5.89h-16.16z"/>
		<path id="red" d="m0.1 109c32.99-53.38 53.6-86.75 61.85-100.1 3.25-5.26 9-8.46 15.18-8.46h33.79c-34.57 53.96-56.17 87.69-64.81 101.18-2.95 4.6-8.04 7.38-13.5 7.38h-32.51z"/>
		<path id="g" d="m53.8 106.64c16.91-27.82 27.48-45.2 31.71-52.16 1.55-2.55 4.32-4.11 7.31-4.12 2.41-0.01 8.44-0.03 18.1-0.05-16.27 26.89-26.43 43.7-30.5 50.43-2.21 3.66-6.18 5.9-10.46 5.9h-16.16z"/>
	</defs>
	<g transform="matrix(.23439 0 0 .23439 .18676 .23738)">
		<use xlink:href="#d"  width="100%" height="100%" fill="#8d8d8d" />
		<use xlink:href="#g" width="100%" height="100%" fill="#8d8d8d"/>
		<use xlink:href="#red"  width="100%" height="100%" fill="#ff2929" />

	</g>
</svg>

