<svg
        viewBox="125 0 480 110"
        class="logo_vitex"
        width="200px"
>
    <path id="V" fill="currentColor"
          d="m150.96 2.18c3.49 0 6.65 2.09 8.01 5.31 3.56 8.41 12.46 29.44 26.7 63.09 13.97-32.77 22.71-53.25 26.2-61.44 1.8-4.22 5.95-6.96 10.53-6.96h11.07c3.87 0 6.49 3.96 4.98 7.52-8.16 19.23-29.74 70.1-37.98 89.5-1.71 4.04-5.67 6.66-10.06 6.66h-8.6c-4.22 0-8.03-2.49-9.72-6.36-8.5-19.46-31.06-71.1-39.52-90.47-1.41-3.23 0.96-6.85 4.48-6.85h13.91z"/>
    <path id="I" fill="currentColor"
          d="m251 6.99c0-2.65 2.15-4.81 4.81-4.81h17.37c2.87 0 5.21 2.33 5.21 5.21v94.93c0 1.96-1.59 3.54-3.54 3.54h-19.68c-2.3 0-4.17-1.86-4.17-4.16v-94.71z"/>
    <path id="T" fill="currentColor"
          d="m324.94 24.35h-30.96c-2.92 0-5.29-2.37-5.29-5.29v-10.53c0-3.35 2.71-6.07 6.06-6.07 18.45 0.01 69.02 0.01 87.79 0.01 2.46 0 4.46 1.99 4.46 4.45v13.76c0 2.03-1.65 3.67-3.68 3.67h-32.57v77.34c0 2.46-2 4.46-4.46 4.46h-17.25c-2.26 0-4.1-1.84-4.1-4.11v-77.69z"/>
    <path id="E" fill="currentColor"
          d="m398.29 8.6c0-3.39 2.75-6.14 6.14-6.14h78.75c3.12 0 5.65 2.53 5.65 5.65v9.04c0 3.38-2.75 6.13-6.13 6.14-7.72 0.01-27.03 0.04-57.92 0.1v20.06h48.33c2.77 0 5.01 2.24 5.01 5.01v10.52c0 2.96-2.4 5.35-5.35 5.35h-47.99c-0.25 13.5-0.25 20.38 0 20.63 0.23 0.23 20.08 0.24 59.55 0.02 2.48-0.01 4.5 1.99 4.5 4.47v12.2c0 2.48-2.01 4.5-4.49 4.5h-81.55c-2.48 0-4.5-2.02-4.5-4.5v-93.05z"/>
    <path id="Xbig" fill="currentColor"
          d="m530.34 52.96c-18.36-23.66-29.83-38.45-34.42-44.36-1.94-2.5-0.16-6.14 3-6.14h19.33c2.46 0 4.8 1.12 6.34 3.05 16.12 20.13 58.99 73.63 74.34 92.8 2.53 3.16 0.28 7.84-3.76 7.84h-16.27c-2.21 0-4.3-0.98-5.72-2.68-3.53-4.21-12.33-14.72-26.43-31.55-13.1 15.91-21.28 25.86-24.56 29.83-2.29 2.78-5.7 4.4-9.3 4.4h-16.87c-2.01 0-3.17-2.3-1.98-3.92 4.84-6.57 16.94-22.99 36.3-49.27z"/>
    <path id="Xsmall" fill="#ff2929"
          d="m572.98 2.18h21.38c3.48 0 5.45 3.98 3.35 6.74-6.21 8.16-23.24 30.55-30.33 39.87-0.36 0.49-1.07 0.53-1.49 0.09-3.46-3.64-11.32-11.91-14.35-15.1-1.68-1.76-1.75-4.51-0.17-6.36 2.88-3.36 10.09-11.78 21.61-25.24z"/>
</svg>