<svg version="1.0" xmlns="http://www.w3.org/2000/svg"
     viewBox="0 0 512 512"
     width="20px"
     fill="#000"
     preserveAspectRatio="xMidYMid meet">

	<g class="save"
	   transform="translate(0.000000,512.000000) scale(0.100000,-0.100000)"
	   stroke="none">
		<path d="M78 5099 c-23 -12 -46 -35 -58 -59 -20 -39 -20 -54 -20 -2480 0
 -2427 0 -2441 20 -2480 13 -26 34 -47 60 -60 39 -20 53 -20 2480 -20 2427 0
2441 0 2480 20 26 13 47 34 60 60 20 39 20 54 20 2083 l0 2043 -29 45 c-38 58
 -816 832 -858 853 -29 15 -218 16 -2075 16 -2014 -1 -2044 -1 -2080 -21z m832
 -869 c0 -572 1 -592 20 -630 13 -26 34 -47 60 -60 39 -20 56 -20 1270 -20
1214 0 1231 0 1270 20 26 13 47 34 60 60 19 38 20 58 20 630 l0 590 248 0 247
0 358 -358 357 -357 0 -1903 0 -1902 -305 0 -305 0 0 1140 c0 1124 0 1141 -20
1180 -13 26 -34 47 -60 60 -39 20 -56 20 -1570 20 -1514 0 -1531 0 -1570 -20
 -26 -13 -47 -34 -60 -60 -20 -39 -20 -56 -20 -1180 l0 -1140 -305 0 -305 0 0
2260 0 2260 305 0 305 0 0 -590z m2400 90 l0 -500 -1050 0 -1050 0 0 500 0
500 1050 0 1050 0 0 -500z m600 -2970 l0 -1050 -1350 0 -1350 0 0 1050 0 1050
1350 0 1350 0 0 -1050z"/>
		<path d="M1588 2079 c-43 -22 -78 -81 -78 -129 0 -50 35 -107 80 -130 38 -20
57 -20 970 -20 913 0 932 0 970 20 45 23 80 80 80 130 0 50 -35 107 -80 130
 -38 20 -56 20 -972 20 -909 -1 -934 -1 -970 -21z"/>
		<path d="M1588 1479 c-43 -22 -78 -81 -78 -129 0 -50 35 -107 80 -130 38 -20
57 -20 970 -20 913 0 932 0 970 20 45 23 80 80 80 130 0 50 -35 107 -80 130
 -38 20 -56 20 -972 20 -909 -1 -934 -1 -970 -21z"/>
		<path d="M1588 879 c-43 -22 -78 -81 -78 -129 0 -50 35 -107 80 -130 38 -20
57 -20 970 -20 913 0 932 0 970 20 45 23 80 80 80 130 0 50 -35 107 -80 130
 -38 20 -56 20 -972 20 -909 -1 -934 -1 -970 -21z"/>
	</g>
</svg>
