<!-- icon666.com - MILLIONS OF FREE VECTOR ICONS -->
<svg id="Layer_1"
     enable-background="new 0 0 512 512"
     viewBox="0 0 512 512"
     xmlns="http://www.w3.org/2000/svg"
     xmlns:xlink="http://www.w3.org/1999/xlink">
    <linearGradient
            id="SVGID_1_"
            gradientUnits="userSpaceOnUse"
            x1="256"
            x2="256"
            y1="0"
            y2="512">
        <stop
                offset="0"
                stop-color="#24b5ea"/>
        <stop
                offset="1"
                stop-color="#24b5ea"/>
    </linearGradient>
    <path
        d="m377.977 336.846-.211.538c-3.772 9.608-11.622 29.601-15.061 33.362-20.875 20.877-89.609-1.335-154.863-66.588-30.688-30.688-54.191-64.625-66.179-95.558-10.599-27.351-10.748-48.966-.449-59.266 3.804-3.479 23.805-11.332 33.417-15.105l.521-.205c.662-.26 1.337-.385 1.996-.385 1.826 0 3.532.958 4.517 2.663l24.47 42.382c1.458 2.525.59 5.766-1.935 7.223l-2.897 1.673c-10.354 5.979-17.094 15.33-19.487 27.042-2.396 11.714.131 22.959 7.307 32.521 10.462 13.942 22.32 27.565 35.246 40.491 12.923 12.924 26.546 24.782 40.49 35.246 9.562 7.174 20.807 9.701 32.521 7.307 11.714-2.396 21.064-9.135 27.04-19.488l1.672-2.896c1.459-2.525 4.7-3.395 7.225-1.936l42.381 24.468c2.321 1.339 3.258 4.017 2.279 6.511zm134.023-80.846c0 141.159-114.841 256-256 256s-256-114.841-256-256c0-141.158 114.841-256 256-256s256 114.842 256 256zm-124.302 53.549-42.382-24.469c-13.983-8.073-31.933-3.266-40.009 10.72l-1.672 2.897c-2.516 4.357-6.135 6.965-11.063 7.974-4.929 1.007-9.284.03-13.31-2.99-13.04-9.785-25.799-20.895-37.924-33.02-12.127-12.126-23.236-24.887-33.021-37.925-3.02-4.024-3.997-8.376-2.988-13.309 1.008-4.929 3.616-8.548 7.973-11.063l2.897-1.672c13.985-8.075 18.795-26.022 10.721-40.008l-24.47-42.382c-7.302-12.648-22.468-17.956-36.068-12.618l-.522.205c-21.024 8.254-35.277 14.137-41.576 20.436-17.622 17.622-19.397 47.79-4.998 84.947 13.166 33.977 38.589 70.86 71.586 103.857s69.881 58.419 103.857 71.586c16.616 6.439 31.83 9.644 45.154 9.643 16.471-.001 30.052-4.9 39.793-14.642 6.298-6.298 12.178-20.544 20.43-41.561l.211-.538c5.336-13.596.031-28.763-12.619-36.068z"
        fill="url(#SVGID_1_)"/>
</svg>